<?xml version="1.0" standalone="no"?>
<!DOCTYPE svg PUBLIC "-//W3C//DTD SVG 20010904//EN"
 "http://www.w3.org/TR/2001/REC-SVG-20010904/DTD/svg10.dtd">
<svg version="1.0" xmlns="http://www.w3.org/2000/svg"
 width="550.000000pt" height="158.000000pt" viewBox="0 0 550.000000 158.000000"
 preserveAspectRatio="xMidYMid meet">
<metadata>
Created by potrace 1.16, written by Peter Selinger 2001-2019
</metadata>
<g transform="translate(0.000000,158.000000) scale(0.100000,-0.100000)"
fill="#000000" stroke="none">
<path d="M345 1085 c-14 -13 -25 -36 -25 -50 0 -33 42 -75 75 -75 35 0 75 42
75 78 0 36 -37 72 -74 72 -15 0 -37 -10 -51 -25z"/>
<path d="M915 1085 c-14 -13 -25 -36 -25 -50 0 -33 42 -75 75 -75 14 0 37 11
50 25 14 13 25 36 25 50 0 14 -11 37 -25 50 -13 14 -36 25 -50 25 -14 0 -37
-11 -50 -25z"/>
<path d="M2947 993 c-10 -10 -8 -306 2 -322 19 -29 31 2 31 80 0 87 17 119 63
119 42 0 57 -29 57 -111 0 -76 10 -107 29 -95 17 11 14 161 -4 195 -18 36 -62
54 -109 46 l-36 -7 0 51 c0 36 -4 51 -13 51 -8 0 -17 -3 -20 -7z"/>
<path d="M3567 987 c-10 -27 -8 -287 3 -307 19 -36 30 -11 30 71 0 87 17 119
63 119 45 0 66 -37 69 -125 2 -45 7 -80 13 -80 14 0 18 170 5 196 -16 29 -70
49 -114 42 l-36 -6 0 52 c0 37 -4 51 -14 51 -8 0 -16 -6 -19 -13z"/>
<path d="M1602 890 c-32 -20 -62 -71 -62 -106 0 -31 34 -87 64 -105 35 -22 74
-24 110 -8 20 9 29 9 40 0 29 -24 36 -1 36 114 0 114 -7 138 -34 116 -10 -8
-22 -8 -40 -1 -41 15 -77 12 -114 -10z m127 -46 c46 -59 10 -144 -62 -144 -62
0 -101 62 -77 120 16 38 35 49 82 50 28 0 41 -6 57 -26z"/>
<path d="M2261 901 c-41 -11 -65 -54 -65 -115 0 -87 47 -135 120 -121 39 7 72
41 56 57 -11 11 -24 8 -53 -13 -22 -16 -61 -5 -77 22 -19 29 -5 37 70 38 72 1
78 4 78 42 0 43 -17 69 -55 85 -37 15 -38 15 -74 5z"/>
<path d="M3260 899 c-43 -17 -60 -48 -60 -114 0 -42 6 -66 18 -81 38 -47 93
-57 136 -23 45 35 27 68 -18 34 -27 -20 -59 -19 -79 3 -34 38 -22 48 63 51 62
2 83 19 74 60 -14 58 -80 92 -134 70z"/>
<path d="M3883 895 c-17 -7 -39 -27 -47 -44 -55 -105 42 -221 151 -182 27 10
37 10 49 0 26 -21 34 7 34 117 0 72 -4 105 -13 113 -10 8 -16 8 -24 0 -8 -8
-20 -8 -44 0 -41 14 -67 13 -106 -4z m102 -31 c19 -8 45 -55 45 -84 0 -33 -53
-80 -89 -80 -46 0 -83 37 -83 84 0 66 61 105 127 80z"/>
<path d="M4590 899 c-78 -29 -80 -193 -3 -228 36 -17 67 -13 97 10 26 20 35
49 16 49 -6 0 -22 -7 -35 -16 -30 -20 -70 -12 -85 16 -17 31 -6 38 67 39 42 0
70 6 75 13 15 25 8 58 -19 88 -31 33 -74 44 -113 29z"/>
<path d="M4815 899 c-27 -17 -35 -29 -35 -60 0 -32 29 -59 72 -68 26 -5 34
-12 36 -34 3 -21 -2 -28 -24 -33 -19 -5 -31 -2 -39 10 -17 23 -45 20 -45 -4 0
-21 46 -50 80 -50 28 0 80 52 80 80 0 28 -43 70 -73 70 -14 0 -30 7 -37 16
-11 12 -10 18 4 32 13 14 20 14 36 4 39 -24 64 -9 42 26 -12 18 -73 25 -97 11z"/>
<path d="M4300 887 c0 -8 16 -59 36 -113 33 -89 47 -113 65 -114 6 0 89 214
89 230 0 6 -8 10 -17 10 -13 0 -26 -21 -46 -76 -16 -42 -33 -72 -37 -68 -5 5
-20 38 -33 74 -14 39 -31 66 -40 68 -10 2 -17 -3 -17 -11z"/>
<path d="M345 515 c-14 -13 -25 -36 -25 -50 0 -14 11 -37 25 -50 13 -14 36
-25 50 -25 14 0 37 11 50 25 14 13 25 36 25 50 0 14 -11 37 -25 50 -13 14 -36
25 -50 25 -14 0 -37 -11 -50 -25z"/>
<path d="M915 515 c-14 -13 -25 -36 -25 -50 0 -33 42 -75 75 -75 33 0 75 42
75 75 0 33 -42 75 -75 75 -14 0 -37 -11 -50 -25z"/>
<path d="M4225 370 c0 -67 1 -70 23 -70 19 0 22 4 17 22 -6 17 -4 20 9 15 11
-4 26 2 41 17 18 18 25 21 29 10 11 -28 86 -38 86 -12 0 6 -7 8 -15 4 -21 -8
-45 3 -45 20 0 9 12 14 35 14 38 0 40 2 25 31 -15 26 -64 25 -83 -2 l-15 -21
-7 21 c-5 17 -14 21 -53 21 l-47 0 0 -70z"/>
</g>
</svg>
